{"title":"O'Hare","uid":9293322,"size":846766786,"categoryP":"video","categoryS":"hd___movies","magnet":"?xt=urn:btih:9bf6dc800346a1366b54596411e99ed5021d82cb&amp;dn=O%27Hare&amp;tr=udp%3A%2F%2Ftracker.openbittorrent.com%3A80&amp;tr=udp%3A%2F%2Fopen.demonii.com%3A1337&amp;tr=udp%3A%2F%2Ftracker.coppersurfer.tk%3A6969&amp;tr=udp%3A%2F%2Fexodus.desync.com%3A6969","seeders":1,"leechers":0,"uploader":"patrick-gillett","files":1,"time":1386124162,"description":"General\nComplete name                            : C:UsersPatrickMy MoviesO'Hare.mov\nFormat                                   : MPEG-4\nFormat profile                           : QuickTime\nCodec ID                                 : qt  \nFile size                                : 808 MiB\nDuration                                 : 3mn 12s\nOverall bit rate mode                    : Variable\nOverall bit rate                         : 35.1 Mbps\nEncoded date                             : UTC 2013-11-16 06:13:08\nTagged date                              : UTC 2013-11-16 06:18:57\nWriting library                          : Apple QuickTime\n\nVideo\nID                                       : 1\nFormat                                   : AVC\nFormat/Info                              : Advanced Video Codec\nFormat profile                           : &lt;a class=&quot;__cf_email__&quot; href=&quot;/cdn-cgi/l/email-protection&quot; data-cfemail=&quot;490428202709057c6778&quot;&gt;[email&amp;#160;protected]&lt;/a&gt;&lt;script cf-hash='f9e31' type=&quot;text/javascript&quot;&gt;\n/* &lt;![CDATA[ */!function(){try{var t=&quot;currentScript&quot;in document?document.currentScript:function(){for(var t=document.getElementsByTagName(&quot;script&quot;),e=t.length;e--;)if(t[e].getAttribute(&quot;cf-hash&quot;))return t[e]}();if(t&amp;&amp;t.previousSibling){var e,r,n,i,c=t.previousSibling,a=c.getAttribute(&quot;data-cfemail&quot;);if(a){for(e=&quot;&quot;,r=parseInt(a.substr(0,2),16),n=2;a.length-n;n+=2)i=parseInt(a.substr(n,2),16)^r,e+=String.fromCharCode(i);e=document.createTextNode(e),c.parentNode.replaceChild(e,c)}}}catch(u){}}();/* ]]&gt; */&lt;/script&gt;\nFormat settings, CABAC                   : No\nFormat settings, ReFrames                : 2 frames\nFormat settings, GOP                     : N=1\nCodec ID                                 : avc1\nCodec ID/Info                            : Advanced Video Coding\nDuration                                 : 3mn 12s\nBit rate mode                            : Variable\nBit rate                                 : 35.0 Mbps\nWidth                                    : 2 048 pixels\nHeight                                   : 858 pixels\nDisplay aspect ratio                     : 2.40:1\nFrame rate mode                          : Constant\nFrame rate                               : 24.000 fps\nColor space                              : YUV\nChroma subsampling                       : 4:2:0\nBit depth                                : 8 bits\nScan type                                : Progressive\nBits/(Pixel*Frame)                       : 0.830\nStream size                              : 804 MiB (100%)\nLanguage                                 : English\nEncoded date                             : UTC 2013-11-16 06:13:08\nTagged date                              : UTC 2013-11-16 06:18:57\nColor primaries                          : BT.709\nTransfer characteristics                 : BT.709\nMatrix coefficients                      : BT.709\n\nAudio\nID                                       : 2\nFormat                                   : AAC\nFormat/Info                              : Advanced Audio Codec\nFormat profile                           : LC\nCodec ID                                 : 40\nDuration                                 : 3mn 12s\nSource duration                          : 3mn 12s\nBit rate mode                            : Constant\nBit rate                                 : 128 Kbps\nChannel count                            : 2 channels\nChannel positions                        : Front: L R\nSampling rate                            : 48.0 KHz\nCompression mode                         : Lossy\nStream size                              : 2.86 MiB (0%)\nSource stream size                       : 2.86 MiB (0%)\nLanguage                                 : English\nEncoded date                             : UTC 2013-11-16 06:13:08\nTagged date                              : UTC 2013-11-16 06:18:57\n\nOther\nID                                       : 3\nType                                     : Time code\nFormat                                   : QuickTime TC\nDuration                                 : 3mn 12s\nTime code of first frame                 : 00:00:00:00\nTime code settings                       : Striped\nLanguage                                 : English\nEncoded date                             : UTC 2013-11-16 06:18:56\nTagged date                              : UTC 2013-11-16 06:18:57\n","torrent":{"xt":"urn:btih:9bf6dc800346a1366b54596411e99ed5021d82cb","amp;dn":"O%27Hare","amp;tr":["udp%3A%2F%2Ftracker.openbittorrent.com%3A80","udp%3A%2F%2Fopen.demonii.com%3A1337","udp%3A%2F%2Ftracker.coppersurfer.tk%3A6969","udp%3A%2F%2Fexodus.desync.com%3A6969"],"infoHash":"9bf6dc800346a1366b54596411e99ed5021d82cb","infoHashBuffer":{"type":"Buffer","data":[155,246,220,128,3,70,161,54,107,84,89,100,17,233,158,213,2,29,130,203]},"announce":[],"urlList":[]}}